<svg width="256" height="256" viewBox="0 0 256 256" fill="none" xmlns="http://www.w3.org/2000/svg">
<path d="M86.3079 212.567H51.966V96.9486H86.3079V212.567ZM69.1185 81.1772C58.1394 81.1772 49.2305 71.6679 49.2305 60.1873C49.2305 48.7066 58.1394 39.3906 69.1185 39.3906C80.0975 39.3906 89.0065 48.7066 89.0065 60.1873C89.0065 71.6679 80.0975 81.1772 69.1185 81.1772ZM214.841 212.567H180.573V156.285C180.573 142.871 180.314 125.67 162.718 125.67C144.863 125.67 142.127 140.243 142.127 155.318V212.567H107.822V96.9486H140.76V112.72H141.24C145.824 103.636 157.025 94.0494 173.734 94.0494C208.482 94.0494 214.878 117.977 214.878 149.056V212.567H214.841Z" fill="white" fill-opacity="0.2"/>
<path d="M86.3079 212.567H51.966V96.9486H86.3079V212.567ZM69.1185 81.1772C58.1394 81.1772 49.2305 71.6679 49.2305 60.1873C49.2305 48.7066 58.1394 39.3906 69.1185 39.3906C80.0975 39.3906 89.0065 48.7066 89.0065 60.1873C89.0065 71.6679 80.0975 81.1772 69.1185 81.1772ZM214.841 212.567H180.573V156.285C180.573 142.871 180.314 125.67 162.718 125.67C144.863 125.67 142.127 140.243 142.127 155.318V212.567H107.822V96.9486H140.76V112.72H141.24C145.824 103.636 157.025 94.0494 173.734 94.0494C208.482 94.0494 214.878 117.977 214.878 149.056V212.567H214.841Z" fill="url(#paint0_linear)"/>
<rect x="0.5" y="0.5" width="255" height="255" rx="15.5" stroke="white" stroke-opacity="0.2"/>
<rect x="0.5" y="0.5" width="255" height="255" rx="15.5" stroke="url(#paint1_linear)"/>
<defs>
<linearGradient id="paint0_linear" x1="60.9232" y1="19.9034" x2="235.263" y2="167.469" gradientUnits="userSpaceOnUse">
<stop stop-color="#3AF436"/>
<stop offset="0.560417" stop-color="#36F4F4"/>
<stop offset="1" stop-color="#363EF4"/>
</linearGradient>
<linearGradient id="paint1_linear" x1="18.0706" y1="-28.8072" x2="277.439" y2="200.708" gradientUnits="userSpaceOnUse">
<stop stop-color="#3AF436"/>
<stop offset="0.560417" stop-color="#36F4F4"/>
<stop offset="1" stop-color="#363EF4"/>
</linearGradient>
</defs>
</svg>
